<svg width="19" height="17" viewBox="0 0 19 17" fill="none" xmlns="http://www.w3.org/2000/svg">
<path id="Vector" fill-rule="evenodd" clip-rule="evenodd" d="M4.13794 0.5H15.0818C15.3429 0.5 15.5841 0.642425 15.7143 0.873489L18.9028 6.53063C19.0681 6.82401 19.019 7.19429 18.7831 7.43219L10.007 16.2849C9.72271 16.5717 9.26538 16.5717 8.98109 16.2849L0.216876 7.44415C-0.0244475 7.20073 -0.0696366 6.81962 0.10782 6.52443L3.51594 0.855339C3.64868 0.634554 3.88421 0.5 4.13794 0.5ZM13.6687 3.02572V4.61302H10.5513V5.71355C12.7407 5.83115 14.3834 6.31419 14.3956 6.89316L14.3956 8.10011C14.3834 8.67908 12.7407 9.1621 10.5513 9.27971V11.9805H8.48124V9.27971C6.29175 9.1621 4.64906 8.67908 4.63687 8.10011L4.63695 6.89316C4.64913 6.31419 6.29175 5.83115 8.48124 5.71355V4.61302H5.36379V3.02572H13.6687ZM9.51625 8.45052C11.8528 8.45052 13.8058 8.04207 14.2837 7.49663C13.8784 7.03409 12.4124 6.67007 10.5513 6.5701V7.72234C10.2177 7.74027 9.87139 7.74971 9.51625 7.74971C9.1611 7.74971 8.81482 7.74027 8.48124 7.72234V6.5701C6.62007 6.67007 5.15406 7.03409 4.74876 7.49663C5.22671 8.04207 7.17968 8.45052 9.51625 8.45052Z" fill="#009393"/>
</svg>
