<svg width="32" height="32" viewBox="0 0 32 32" fill="none" xmlns="http://www.w3.org/2000/svg">
<path d="M16 32C24.8227 32 32 24.8221 32 16C32 7.1779 24.8227 0 16 0C7.17732 0 0 7.1766 0 16C0 24.8234 7.17732 32 16 32ZM16 2.58523C23.397 2.58523 29.415 8.60365 29.415 16C29.415 23.3963 23.397 29.4148 16 29.4148C8.60296 29.4148 2.58502 23.3976 2.58502 16C2.58502 8.60236 8.60296 2.58523 16 2.58523Z" fill="#9998B8"/>
<path d="M16 12.7607C15.2853 12.7607 14.7075 13.3398 14.7075 14.0534V24.7691C14.7075 25.4827 15.2853 26.0618 16 26.0618C16.7148 26.0618 17.2925 25.4827 17.2925 24.7691V14.0534C17.2925 13.3398 16.7148 12.7607 16 12.7607Z" fill="#9998B8"/>
<path d="M16 10.9304C17.0215 10.9304 17.8496 10.1023 17.8496 9.08069C17.8496 8.05911 17.0215 7.23096 16 7.23096C14.9785 7.23096 14.1504 8.05911 14.1504 9.08069C14.1504 10.1023 14.9785 10.9304 16 10.9304Z" fill="#9998B8"/>
</svg>
