<svg width="40" height="40" viewBox="0 0 40 40" fill="none" xmlns="http://www.w3.org/2000/svg">
<rect x="-0.00012207" width="39.9999" height="39.9998" rx="19.9999" fill="#DD60FC" fill-opacity="0.15"/>
<path d="M24.3332 19.9997H25.8499C26.0223 19.9997 26.1876 20.0682 26.3095 20.1901C26.4314 20.312 26.4999 20.4773 26.4999 20.6497V28.0163C26.4999 28.1887 26.4314 28.3541 26.3095 28.476C26.1876 28.5979 26.0223 28.6663 25.8499 28.6663H14.1499C13.9775 28.6663 13.8122 28.5979 13.6903 28.476C13.5684 28.3541 13.4999 28.1887 13.4999 28.0163V20.6497C13.4999 20.4773 13.5684 20.312 13.6903 20.1901C13.8122 20.0682 13.9775 19.9997 14.1499 19.9997H15.6665M24.3332 19.9997V15.6663C24.3332 14.2223 23.4665 11.333 19.9999 11.333C16.5332 11.333 15.6665 14.2223 15.6665 15.6663V19.9997M24.3332 19.9997H15.6665" stroke="#DD60FC" stroke-width="1.5" stroke-linecap="round" stroke-linejoin="round"/>
</svg>
