<svg width="40" height="40" viewBox="0 0 40 40" fill="none" xmlns="http://www.w3.org/2000/svg">
<rect x="6.10352e-05" width="39.9999" height="39.9998" rx="19.9999" fill="#63B200" fill-opacity="0.15"/>
<path d="M18.9167 22.7084C18.9167 24.2034 21.3423 25.4167 24.3334 25.4167C27.3245 25.4167 29.7501 24.2034 29.7501 22.7084M10.2501 17.2917C10.2501 18.7867 12.6756 20.0001 15.6667 20.0001C16.8866 20.0001 18.0121 19.7986 18.9167 19.4584M10.2501 21.0834C10.2501 22.5784 12.6756 23.7917 15.6667 23.7917C16.8866 23.7917 18.0111 23.5902 18.9167 23.2501M24.3334 21.0834C21.3423 21.0834 18.9167 19.8701 18.9167 18.3751C18.9167 16.8801 21.3423 15.6667 24.3334 15.6667C27.3245 15.6667 29.7501 16.8801 29.7501 18.3751C29.7501 19.8701 27.3245 21.0834 24.3334 21.0834Z" stroke="#63B200" stroke-width="1.5" stroke-linecap="round" stroke-linejoin="round"/>
<path d="M10.2501 12.9583V24.8749C10.2501 26.3699 12.6756 27.5833 15.6667 27.5833C16.8866 27.5833 18.0111 27.3818 18.9167 27.0416M18.9167 27.0416V18.3749M18.9167 27.0416C18.9167 28.5366 21.3423 29.7499 24.3334 29.7499C27.3245 29.7499 29.7501 28.5366 29.7501 27.0416V18.3749M21.0834 16.2083V12.9583" stroke="#63B200" stroke-width="1.5" stroke-linecap="round" stroke-linejoin="round"/>
<path d="M15.6667 15.6667C12.6756 15.6667 10.2501 14.4533 10.2501 12.9583C10.2501 11.4633 12.6756 10.25 15.6667 10.25C18.6578 10.25 21.0834 11.4633 21.0834 12.9583C21.0834 14.4533 18.6578 15.6667 15.6667 15.6667Z" stroke="#63B200" stroke-width="1.5" stroke-linecap="round" stroke-linejoin="round"/>
</svg>
