<svg width="53" height="42" viewBox="0 0 53 42" fill="none" xmlns="http://www.w3.org/2000/svg">
<path d="M10.0612 0.913068L10.0109 0.884283L9.96092 0.913463L1.01971 6.12908L0.970006 6.15808V6.21562V16.5985V16.6562L1.01989 16.6852L8.45094 20.9988L1.01989 25.3124L0.970006 25.3414V25.3991V35.698V35.7551L1.01908 35.7842L9.95805 41.0862L10.0084 41.116L10.0591 41.0868L17.6787 36.7036L17.6795 36.7032L26.6667 31.6392L35.6539 36.704L35.6546 36.7044L43.2893 41.0856L43.3397 41.1146L43.3899 41.0851L52.4109 35.7864L52.4603 35.7574V35.7V25.3981V25.3402L52.4102 25.3113L44.9448 20.9988L52.4102 16.6862L52.4603 16.6573V16.5995V6.21364V6.15581L52.4102 6.12689L43.387 0.914484L43.3372 0.885692L43.2872 0.91425L26.655 10.4184L10.0612 0.913068ZM2.58047 8.01613L16.728 16.194L10.0549 20.0677L2.58047 15.7289V8.01613ZM18.333 15.2616L3.37878 6.61742L10.0183 2.74445L25.0447 11.3519L18.333 15.2616ZM33.3941 16.1837L26.6555 19.9925L19.9494 16.1837L26.6555 12.2774L33.3941 16.1837ZM50.8498 15.7278L43.335 20.0689L36.6273 16.194L50.8498 8.01274V15.7278ZM50.0427 6.61911L35.0165 15.2627L28.2688 11.3511L43.3329 2.74304L50.0427 6.61911ZM50.0453 25.805L43.3362 29.6806L28.2739 20.9277L35.0106 17.12L50.0453 25.805ZM44.1403 38.7766V31.076L50.8498 27.2001V34.8356L44.1403 38.7766ZM27.4598 22.3173L42.5298 31.0746V38.793L27.4598 30.1449V22.3173ZM25.8493 22.319V30.1454L10.8198 38.7913V31.074L25.8493 22.319ZM10.0149 29.6791L3.37627 25.8067L18.3389 17.1211L25.0396 20.9269L10.0149 29.6791ZM2.58047 34.8379V27.2069L9.20937 31.0737V38.7697L2.58047 34.8379Z" fill="#282E3F" stroke="#282E3F" stroke-width="0.200368"/>
</svg>
