<svg width="112" height="36" viewBox="0 0 112 36" fill="none" xmlns="http://www.w3.org/2000/svg">
<g clip-path="url(#clip0_1983_21004)">
<path d="M13.6331 0.331421L15.5308 2.22915V5.40003H13.2488V3.166L12.6963 2.6135H6.35448L5.80198 3.166V12.6787L6.35448 13.2312H12.6963L13.2488 12.6787V10.4446H15.5308V13.6155L13.6331 15.5132H5.41763L3.5199 13.6155V2.22915L5.41763 0.331421H13.6331Z" fill="#282E3F"/>
<path d="M29.7184 0.331421L31.6161 2.22915V8.5469L29.7184 10.4446H26.5475L31.6161 15.5132H28.3972L23.3286 10.4446H21.8873V15.5132H19.6052V0.331421H29.7184ZM29.334 7.61004V3.166L28.7815 2.6135H21.8873V8.16255H28.7815L29.334 7.61004Z" fill="#282E3F"/>
<path d="M45.8037 0.331421L47.7014 2.22915V13.6155L45.8037 15.5132H37.5882L35.6904 13.6155V2.22915L37.5882 0.331421H45.8037ZM45.4193 12.6787V3.166L44.8668 2.6135H38.525L37.9725 3.166V12.6787L38.525 13.2312H44.8668L45.4193 12.6787Z" fill="#282E3F"/>
<path d="M61.8889 0.331421L63.7867 2.22915V4.75144H61.5046V3.166L60.9521 2.6135H54.6103L54.0578 3.166V5.90449L54.6103 6.457H61.8889L63.7867 8.35472V13.6155L61.8889 15.5132H53.6735L51.7757 13.6155V11.0932H54.0578V12.6787L54.6103 13.2312H60.9521L61.5046 12.6787V9.29158L60.9521 8.73907H53.6735L51.7757 6.84135V2.22915L53.6735 0.331421H61.8889Z" fill="#282E3F"/>
<path d="M77.9742 0.331421L79.8719 2.22915V4.75144H77.5899V3.166L77.0374 2.6135H70.6956L70.1431 3.166V5.90449L70.6956 6.457H77.9742L79.8719 8.35472V13.6155L77.9742 15.5132H69.7587L67.861 13.6155V11.0932H70.1431V12.6787L70.6956 13.2312H77.0374L77.5899 12.6787V9.29158L77.0374 8.73907H69.7587L67.861 6.84135V2.22915L69.7587 0.331421H77.9742Z" fill="#282E3F"/>
<path d="M86.7809 2.6135L86.2284 3.166V6.26482H93.4349V8.5469H86.2284V15.5132H83.9463V2.22915L85.844 0.331421H95.9572V2.6135H86.7809Z" fill="#282E3F"/>
<path d="M107.19 2.6135V13.2312H112.042V15.5132H100.032V13.2312H104.908V2.6135H100.032V0.331421H112.042V2.6135H107.19Z" fill="#282E3F"/>
<path d="M56.0156 20.0632L55.9688 20.0164H55.9027H47.7703H47.7042L47.6574 20.0632L45.7789 21.9417L45.7321 21.9885V22.0546V35.2044V35.364H45.8917H48.1507H48.3103V35.2044V30.3466H55.9027H55.9688L56.0156 30.2999L57.8941 28.4213L57.9409 28.3746V28.3085V22.0546V21.9885L57.8941 21.9417L56.0156 20.0632ZM54.9092 22.5946L55.3626 23.0481V27.315L54.9092 27.7684H48.3103V23.0481L48.7638 22.5946H54.9092Z" fill="#282E3F" stroke="#282E3F" stroke-width="0.319222"/>
<path d="M41.7574 20.0632L41.7106 20.0164H41.6445H33.5121H33.446L33.3992 20.0632L31.5207 21.9417L31.4739 21.9885V22.0546V35.2044V35.364H31.6335H33.8926H34.0522V35.2044V30.3466H41.6445H41.7106L41.7574 30.2999L43.6359 28.4213L43.6827 28.3746V28.3085V22.0546V21.9885L43.6359 21.9417L41.7574 20.0632ZM40.651 22.5946L41.1045 23.0481V27.315L40.651 27.7684H34.0522V23.0481L34.5056 22.5946H40.651Z" fill="#282E3F" stroke="#282E3F" stroke-width="0.319222"/>
<path d="M27.4992 20.0632L27.4525 20.0164H27.3863H19.2539H19.1878L19.1411 20.0632L17.2625 21.9417L17.2158 21.9885V22.0546V35.2044V35.364H17.3754H19.6344H19.794V35.2044V30.9886H26.8463V35.2044V35.364H27.0059H29.2649H29.4245V35.2044V22.0546V21.9885L29.3778 21.9417L27.4992 20.0632ZM26.8463 23.0481V28.4104H19.794V23.0481L20.2474 22.5946H26.3929L26.8463 23.0481Z" fill="#282E3F" stroke="#282E3F" stroke-width="0.319222"/>
<path d="M3.66144 35.1468L3.51783 35.2851H3.71716H6.018H6.05087L6.07432 35.262L8.80751 32.5761L11.5407 35.262L11.5641 35.2851H11.597H13.8979H14.0979L13.9534 35.1467L10.0639 31.4219L13.9534 27.6972L14.0979 27.5588H13.8979H11.597H11.5641L11.5407 27.5819L8.80751 30.2678L6.07432 27.5819L6.05087 27.5588H6.018H3.71716H3.51783L3.66144 27.697L7.53105 31.4219L3.66144 35.1468Z" fill="#282E3F" stroke="#282E3F" stroke-width="0.160703"/>
</g>
<defs>
<clipPath id="clip0_1983_21004">
<rect width="111.906" height="34.9707" fill="white" transform="translate(0.0228271 0.331421)"/>
</clipPath>
</defs>
</svg>
