<svg width="20" height="20" viewBox="0 0 20 20" fill="none" xmlns="http://www.w3.org/2000/svg">
<path d="M5.83271 9.94045C5.83271 9.91868 5.83271 9.89289 5.83271 9.86252C5.83957 9.55367 5.79844 8.75088 5.24898 8.14979C5.21693 8.11582 5.18319 8.0835 5.14789 8.05296C4.82346 7.7315 4.34825 7.5 3.65143 7.5C3.61544 7.5 3.5806 7.5 3.54519 7.5C3.52235 7.5 3.50121 7.5 3.47779 7.5V7.50458C1.39932 7.55787 0.000530867 8.4873 0.000530867 9.84992V10.8928C0.000530867 10.914 0.000530867 10.9398 0.000530867 10.9702C-0.00575197 11.279 0.0353718 12.0818 0.584834 12.6835C0.617361 12.7185 0.651879 12.7516 0.688215 12.7826C1.01207 13.1029 1.48785 13.3333 2.18182 13.3333C2.21152 13.3333 2.23893 13.3332 2.26921 13.3304C2.28463 13.3304 2.29948 13.3333 2.3149 13.3333C2.62147 13.3351 2.92751 13.3072 3.22877 13.2502C4.81547 12.9929 5.82929 12.1443 5.82929 10.9856V9.94045H5.83271Z" fill="#282E3F" />
<path d="M12.4994 9.94045C12.4994 9.91868 12.4994 9.89289 12.4994 9.86252C12.5063 9.55367 12.4651 8.75088 11.9157 8.14979C11.8836 8.11582 11.8499 8.0835 11.8146 8.05296C11.4901 7.7315 11.0149 7.5 10.3181 7.5C10.2821 7.5 10.2473 7.5 10.2119 7.5C10.189 7.5 10.1679 7.5 10.1445 7.5V7.50458C8.06601 7.55787 6.66722 8.4873 6.66722 9.84992V10.8928C6.66722 10.914 6.66722 10.9398 6.66722 10.9702C6.66094 11.279 6.70206 12.0818 7.25152 12.6835C7.28405 12.7185 7.31857 12.7516 7.3549 12.7826C7.67875 13.1029 8.15454 13.3333 8.8485 13.3333C8.87821 13.3333 8.90562 13.3332 8.93589 13.3304C8.95131 13.3304 8.96616 13.3333 8.98159 13.3333C9.28816 13.3351 9.5942 13.3072 9.89545 13.2502C11.4822 12.9929 12.496 12.1443 12.496 10.9856V9.94045H12.4994Z" fill="#282E3F" />
<path d="M19.166 9.94045C19.166 9.91868 19.166 9.89289 19.166 9.86252C19.1729 9.55367 19.1318 8.75088 18.5823 8.14979C18.5502 8.11582 18.5165 8.0835 18.4812 8.05296C18.1568 7.7315 17.6816 7.5 16.9847 7.5C16.9488 7.5 16.9139 7.5 16.8785 7.5C16.8557 7.5 16.8345 7.5 16.8111 7.5V7.50458C14.7326 7.55787 13.3338 8.4873 13.3338 9.84992V10.8928C13.3338 10.914 13.3338 10.9398 13.3338 10.9702C13.3276 11.279 13.3687 12.0818 13.9181 12.6835C13.9507 12.7185 13.9852 12.7516 14.0215 12.7826C14.3454 13.1029 14.8212 13.3333 15.5151 13.3333C15.5448 13.3333 15.5722 13.3332 15.6025 13.3304C15.6179 13.3304 15.6328 13.3333 15.6482 13.3333C15.9548 13.3351 16.2608 13.3072 16.5621 13.2502C18.1488 12.9929 19.1626 12.1443 19.1626 10.9856V9.94045H19.166Z" fill="#282E3F" />
</svg>
