<svg xmlns="http://www.w3.org/2000/svg" width="7" height="11" viewBox="0 0 7 11" fill="none">
<path d="M1.62012 3.41797H0C0 2.92578 0.0729167 2.47461 0.21875 2.06445C0.369141 1.64974 0.585612 1.28971 0.868164 0.984375C1.15527 0.674479 1.52669 0.432943 1.98242 0.259766C2.44271 0.0865885 2.9668 0 3.55469 0C4.44792 0 5.19076 0.246094 5.7832 0.738281C6.38021 1.22591 6.67871 1.85254 6.67871 2.61816C6.67871 2.90983 6.64225 3.17188 6.56934 3.4043C6.50098 3.63216 6.38932 3.8418 6.23438 4.0332C6.07943 4.22005 5.92676 4.37956 5.77637 4.51172C5.63053 4.63932 5.43229 4.79199 5.18164 4.96973C4.97201 5.12012 4.8125 5.23861 4.70312 5.3252C4.59375 5.41178 4.46615 5.53255 4.32031 5.6875C4.17904 5.83789 4.07422 5.986 4.00586 6.13184C3.9375 6.27767 3.87826 6.46224 3.82812 6.68555C3.77799 6.90885 3.75293 7.15723 3.75293 7.43066H2.31055C2.31055 6.72428 2.4222 6.15006 2.64551 5.70801C2.87337 5.26139 3.22201 4.84212 3.69141 4.4502C3.78711 4.36361 3.91699 4.25879 4.08105 4.13574C4.24512 4.0127 4.37272 3.91243 4.46387 3.83496C4.55957 3.75293 4.65755 3.65267 4.75781 3.53418C4.86263 3.41569 4.93783 3.28353 4.9834 3.1377C5.02897 2.99186 5.05176 2.8278 5.05176 2.64551C5.05176 2.28548 4.91276 1.98698 4.63477 1.75C4.35677 1.50846 3.98307 1.3877 3.51367 1.3877C2.2513 1.3877 1.62012 2.06445 1.62012 3.41797ZM3.03516 10.3291C2.77083 10.3291 2.55208 10.2471 2.37891 10.083C2.21029 9.91439 2.12598 9.69336 2.12598 9.41992C2.12598 9.15104 2.21029 8.93229 2.37891 8.76367C2.55208 8.59505 2.77083 8.51074 3.03516 8.51074C3.29036 8.51074 3.50228 8.59505 3.6709 8.76367C3.84408 8.93229 3.93066 9.15104 3.93066 9.41992C3.93066 9.69336 3.84635 9.91439 3.67773 10.083C3.50911 10.2471 3.29492 10.3291 3.03516 10.3291Z" fill="#609EFC"/>
</svg>