<svg width="40" height="40" viewBox="0 0 40 40" fill="none" xmlns="http://www.w3.org/2000/svg">
<rect width="40" height="40" rx="20" fill="#282E3F" fill-opacity="0.04"/>
<rect x="4" y="4" width="32" height="32" rx="16" fill="#282E3F" fill-opacity="0.1"/>
<path d="M18.6201 18.418H17C17 17.9258 17.0729 17.4746 17.2188 17.0645C17.3691 16.6497 17.5856 16.2897 17.8682 15.9844C18.1553 15.6745 18.5267 15.4329 18.9824 15.2598C19.4427 15.0866 19.9668 15 20.5547 15C21.4479 15 22.1908 15.2461 22.7832 15.7383C23.3802 16.2259 23.6787 16.8525 23.6787 17.6182C23.6787 17.9098 23.6423 18.1719 23.5693 18.4043C23.501 18.6322 23.3893 18.8418 23.2344 19.0332C23.0794 19.2201 22.9268 19.3796 22.7764 19.5117C22.6305 19.6393 22.4323 19.792 22.1816 19.9697C21.972 20.1201 21.8125 20.2386 21.7031 20.3252C21.5938 20.4118 21.4661 20.5326 21.3203 20.6875C21.179 20.8379 21.0742 20.986 21.0059 21.1318C20.9375 21.2777 20.8783 21.4622 20.8281 21.6855C20.778 21.9089 20.7529 22.1572 20.7529 22.4307H19.3105C19.3105 21.7243 19.4222 21.1501 19.6455 20.708C19.8734 20.2614 20.222 19.8421 20.6914 19.4502C20.7871 19.3636 20.917 19.2588 21.0811 19.1357C21.2451 19.0127 21.3727 18.9124 21.4639 18.835C21.5596 18.7529 21.6576 18.6527 21.7578 18.5342C21.8626 18.4157 21.9378 18.2835 21.9834 18.1377C22.029 17.9919 22.0518 17.8278 22.0518 17.6455C22.0518 17.2855 21.9128 16.987 21.6348 16.75C21.3568 16.5085 20.9831 16.3877 20.5137 16.3877C19.2513 16.3877 18.6201 17.0645 18.6201 18.418ZM20.0352 25.3291C19.7708 25.3291 19.5521 25.2471 19.3789 25.083C19.2103 24.9144 19.126 24.6934 19.126 24.4199C19.126 24.151 19.2103 23.9323 19.3789 23.7637C19.5521 23.5951 19.7708 23.5107 20.0352 23.5107C20.2904 23.5107 20.5023 23.5951 20.6709 23.7637C20.8441 23.9323 20.9307 24.151 20.9307 24.4199C20.9307 24.6934 20.8464 24.9144 20.6777 25.083C20.5091 25.2471 20.2949 25.3291 20.0352 25.3291Z" fill="#282E3F" fill-opacity="0.8"/>
</svg>
