<svg width="20" height="20" viewBox="0 0 20 20" fill="none" xmlns="http://www.w3.org/2000/svg">
<path d="M15.6833 13.5421C15.4088 13.3328 15.0166 13.3855 14.8073 13.66C13.6708 15.1503 11.9099 16.0416 10 16.0416C6.88671 16.0416 4.32337 13.6868 3.99413 10.661L4.55812 11.2247C4.80221 11.4688 5.19787 11.4688 5.44196 11.2247C5.66387 11.0028 5.68404 10.6555 5.50246 10.4108L5.44196 10.3408L3.77529 8.67408C3.55346 8.45217 3.20621 8.432 2.96154 8.61358L2.89146 8.67408L1.22479 10.3408C0.980707 10.5848 0.980707 10.9806 1.22479 11.2247C1.44662 11.4465 1.79387 11.4667 2.03854 11.2852L2.10863 11.2247L2.73271 10.5994C3.03754 14.3461 6.17479 17.2916 10 17.2916C12.304 17.2916 14.4307 16.2151 15.8012 14.418C16.0106 14.1436 15.9578 13.7513 15.6833 13.5421ZM18.7753 8.77517C18.5312 8.53109 18.1355 8.53109 17.8914 8.77517L17.2674 9.39959C16.962 5.65333 13.825 2.70825 10 2.70825C7.79629 2.70825 5.75221 3.69263 4.37579 5.35893C4.15596 5.62505 4.19346 6.01899 4.45962 6.23883C4.72571 6.45865 5.11971 6.42113 5.33954 6.155C6.48096 4.77319 8.17321 3.95825 10 3.95825C13.1131 3.95825 15.6762 6.31269 16.0059 9.338L15.442 8.77517C15.1979 8.53109 14.8022 8.53109 14.5581 8.77517C14.314 9.01925 14.314 9.415 14.5581 9.65908L16.2248 11.3258C16.4688 11.5698 16.8646 11.5698 17.1087 11.3258L18.7753 9.65908C19.0194 9.415 19.0194 9.01925 18.7753 8.77517Z" fill="#282E3F"/>
</svg>
