<svg width="40" height="41" viewBox="0 0 40 41" fill="none" xmlns="http://www.w3.org/2000/svg">
<rect y="0.5" width="40" height="40" rx="20" fill="#282E3F" fill-opacity="0.04"/>
<path d="M20 23C21.3807 23 22.5 21.8807 22.5 20.5C22.5 19.1193 21.3807 18 20 18C18.6193 18 17.5 19.1193 17.5 20.5C17.5 21.8807 18.6193 23 20 23Z" stroke="#282E3F" stroke-opacity="0.8" stroke-miterlimit="10" stroke-linecap="round" stroke-linejoin="round"/>
<path d="M11.6667 21.2346V19.7679C11.6667 18.9012 12.375 18.1846 13.25 18.1846C14.7584 18.1846 15.375 17.1179 14.6167 15.8096C14.1834 15.0596 14.4417 14.0846 15.2 13.6512L16.6417 12.8262C17.3 12.4346 18.15 12.6679 18.5417 13.3262L18.6334 13.4846C19.3834 14.7929 20.6167 14.7929 21.375 13.4846L21.4667 13.3262C21.8584 12.6679 22.7084 12.4346 23.3667 12.8262L24.8084 13.6512C25.5667 14.0846 25.825 15.0596 25.3917 15.8096C24.6334 17.1179 25.25 18.1846 26.7584 18.1846C27.625 18.1846 28.3417 18.8929 28.3417 19.7679V21.2346C28.3417 22.1012 27.6334 22.8179 26.7584 22.8179C25.25 22.8179 24.6334 23.8846 25.3917 25.1929C25.825 25.9512 25.5667 26.9179 24.8084 27.3512L23.3667 28.1762C22.7084 28.5679 21.8584 28.3346 21.4667 27.6762L21.375 27.5179C20.625 26.2096 19.3917 26.2096 18.6334 27.5179L18.5417 27.6762C18.15 28.3346 17.3 28.5679 16.6417 28.1762L15.2 27.3512C14.4417 26.9179 14.1834 25.9429 14.6167 25.1929C15.375 23.8846 14.7584 22.8179 13.25 22.8179C12.375 22.8179 11.6667 22.1012 11.6667 21.2346Z" stroke="#282E3F" stroke-opacity="0.8" stroke-miterlimit="10" stroke-linecap="round" stroke-linejoin="round"/>
</svg>
