<svg width="20" height="20" viewBox="0 0 20 20" fill="none" xmlns="http://www.w3.org/2000/svg">
<path d="M2.5 15.8333V4.16667C2.5 3.72464 2.67559 3.30072 2.98816 2.98816C3.30072 2.67559 3.72464 2.5 4.16667 2.5H15.8333C16.2754 2.5 16.6993 2.67559 17.0118 2.98816C17.3244 3.30072 17.5 3.72464 17.5 4.16667V15.8333C17.5 16.2754 17.3244 16.6993 17.0118 17.0118C16.6993 17.3244 16.2754 17.5 15.8333 17.5H4.16667C3.72464 17.5 3.30072 17.3244 2.98816 17.0118C2.67559 16.6993 2.5 16.2754 2.5 15.8333Z" stroke="#666B79" stroke-width="1.5"/>
<path d="M14.9998 11.6667V8.33333M10.4165 7.91667L11.2498 7.08333M6.24984 7.91667L5.4165 7.08333M5.4165 12.9167L6.24984 12.0833M11.2498 12.9167L10.4165 12.0833M1.6665 6.66667H2.49984M1.6665 5H2.49984M2.49984 13.3333H1.6665M2.49984 15H1.6665M8.33317 12.5C7.67013 12.5 7.03424 12.2366 6.5654 11.7678C6.09656 11.2989 5.83317 10.663 5.83317 10C5.83317 9.33696 6.09656 8.70107 6.5654 8.23223C7.03424 7.76339 7.67013 7.5 8.33317 7.5C8.99621 7.5 9.6321 7.76339 10.1009 8.23223C10.5698 8.70107 10.8332 9.33696 10.8332 10C10.8332 10.663 10.5698 11.2989 10.1009 11.7678C9.6321 12.2366 8.99621 12.5 8.33317 12.5Z" stroke="#666B79" stroke-width="1.5" stroke-linecap="round" stroke-linejoin="round"/>
</svg>
