<svg width="24" height="24" viewBox="0 0 24 24" fill="none" xmlns="http://www.w3.org/2000/svg">
<g id="Bridge icon">
<path id="Vector" d="M2 18V6C2 5.20435 2.31607 4.44129 2.87868 3.87868C3.44129 3.31607 4.20435 3 5 3H7C7.79565 3 8.55871 3.31607 9.12132 3.87868C9.68393 4.44129 10 5.20435 10 6V18C10 18.7956 9.68393 19.5587 9.12132 20.1213C8.55871 20.6839 7.79565 21 7 21H5C4.20435 21 3.44129 20.6839 2.87868 20.1213C2.31607 19.5587 2 18.7956 2 18Z" stroke="#9B60FC" stroke-width="1.5"/>
<path id="Vector_2" d="M16 3H18C19.0609 3 20.0783 3.42143 20.8284 4.17157C21.5786 4.92172 22 5.93913 22 7V17C22 18.0609 21.5786 19.0783 20.8284 19.8284C20.0783 20.5786 19.0609 21 18 21H16M10 12H18M18 12L15 9M18 12L15 15" stroke="#9B60FC" stroke-width="1.5" stroke-linecap="round" stroke-linejoin="round"/>
</g>
</svg>
