<svg width="32" height="32" viewBox="0 0 32 32" fill="none" xmlns="http://www.w3.org/2000/svg">
<rect width="32" height="32" rx="16" fill="#DD60FC" fill-opacity="0.15"/>
<path d="M21.2175 23.3557C21.2495 23.7105 20.3626 24.1628 20.0835 23.9413C17.6807 22.0344 14.3214 22.0339 11.918 23.9398C11.6388 24.1612 10.7509 23.7081 10.7827 23.3533C10.9293 21.7218 10.2782 21.0707 8.64668 21.2172C8.29181 21.2491 7.8388 20.3611 8.06019 20.0819C9.96609 17.6787 9.96556 14.3198 8.05863 11.9171C7.83715 11.6381 8.28943 10.751 8.64426 10.783C10.2776 10.9301 10.9294 10.279 10.7827 8.64668C10.7509 8.29182 11.6388 7.8388 11.918 8.06019C14.3214 9.96612 17.6807 9.9656 20.0835 8.05862C20.3626 7.83716 21.2495 8.28944 21.2175 8.64426C21.0703 10.2783 21.722 10.9301 23.3557 10.783C23.7105 10.751 24.1628 11.638 23.9414 11.9171C22.0349 14.3198 22.0343 17.6787 23.9399 20.0819C24.1612 20.3611 23.7082 21.2491 23.3533 21.2172C21.7214 21.0707 21.0704 21.7225 21.2175 23.3557Z" fill="#DD60FC"/>
</svg>
