<svg width="32" height="32" viewBox="0 0 32 32" fill="none" xmlns="http://www.w3.org/2000/svg">
<rect width="32" height="32" rx="16" fill="#9B60FC" fill-opacity="0.25"/>
<path fill-rule="evenodd" clip-rule="evenodd" d="M12.0571 8H8.05714V12C8.05714 14.037 9.57973 15.7183 11.5489 15.968C9.55212 16.1922 8 17.8862 8 19.9429L8 23.9429H12C14.037 23.9429 15.7183 22.4202 15.968 20.4511C16.1922 22.4479 17.8862 24 19.9429 24H23.9429V20C23.9429 17.963 22.4202 16.2817 20.4511 16.032C22.4479 15.8079 24 14.1138 24 12.0571V8.05714L20 8.05714C17.963 8.05714 16.2817 9.57973 16.032 11.5489C15.8079 9.55212 14.1138 8 12.0571 8Z" fill="#9B60FC"/>
</svg>
