<svg width="32" height="32" viewBox="0 0 32 32" fill="none" xmlns="http://www.w3.org/2000/svg">
<rect width="32" height="32" rx="16" fill="#609EFC" fill-opacity="0.15"/>
<g clip-path="url(#clip0_1040_13923)">
<path fill-rule="evenodd" clip-rule="evenodd" d="M10.1379 8H21.0818C21.3429 8 21.5841 8.14243 21.7143 8.37349L24.9028 14.0306C25.0681 14.324 25.019 14.6943 24.7831 14.9322L16.007 23.7849C15.7227 24.0717 15.2654 24.0717 14.9811 23.7849L6.21688 14.9441C5.97555 14.7007 5.93036 14.3196 6.10782 14.0244L9.51594 8.35534C9.64868 8.13455 9.88421 8 10.1379 8ZM19.6687 10.5257V12.113H16.5513V13.2135C18.7407 13.3312 20.3834 13.8142 20.3956 14.3932L20.3956 15.6001C20.3834 16.1791 18.7407 16.6621 16.5513 16.7797V19.4805H14.4812V16.7797C12.2918 16.6621 10.6491 16.1791 10.6369 15.6001L10.637 14.3932C10.6491 13.8142 12.2918 13.3312 14.4812 13.2135V12.113H11.3638V10.5257H19.6687ZM15.5163 15.9505C17.8528 15.9505 19.8058 15.5421 20.2837 14.9966C19.8784 14.5341 18.4124 14.1701 16.5513 14.0701V15.2223C16.2177 15.2403 15.8714 15.2497 15.5163 15.2497C15.1611 15.2497 14.8148 15.2403 14.4812 15.2223V14.0701C12.6201 14.1701 11.1541 14.5341 10.7488 14.9966C11.2267 15.5421 13.1797 15.9505 15.5163 15.9505Z" fill="#282E3F" fill-opacity="0.8"/>
</g>
<defs>
<clipPath id="clip0_1040_13923">
<rect width="19" height="16" fill="white" transform="translate(6 8)"/>
</clipPath>
</defs>
</svg>
