<svg width="23" height="17" viewBox="0 0 23 17" fill="none" xmlns="http://www.w3.org/2000/svg">
<path fill-rule="evenodd" clip-rule="evenodd" d="M-6.55671e-08 16.25C-2.93554e-08 16.6642 0.335786 17 0.75 17L11.25 17C11.6642 17 12 16.6642 12 16.25C12 15.8358 11.6642 15.5 11.25 15.5L0.75 15.5C0.335786 15.5 -1.01779e-07 15.8358 -6.55671e-08 16.25Z" fill="white"/>
<path fill-rule="evenodd" clip-rule="evenodd" d="M0 8.75C0 8.33579 0.335786 8 0.75 8H22.25C22.6642 8 23 8.33579 23 8.75C23 9.16421 22.6642 9.5 22.25 9.5H0.75C0.335786 9.5 0 9.16421 0 8.75Z" fill="white"/>
<path fill-rule="evenodd" clip-rule="evenodd" d="M-6.55671e-08 1.25C-2.93554e-08 1.66421 0.335786 2 0.75 2L22.25 2C22.6642 2 23 1.66421 23 1.25C23 0.835784 22.6642 0.499998 22.25 0.499998L0.75 0.5C0.335786 0.5 -1.01779e-07 0.835786 -6.55671e-08 1.25Z" fill="white"/>
</svg>
