<svg width="38" height="38" viewBox="0 0 38 38" fill="none" xmlns="http://www.w3.org/2000/svg">
<rect width="38" height="38" rx="19" fill="#F8FAFF"/>
<path d="M20.5437 10.9695C21.2637 11.0586 21.9836 11.259 22.6961 11.4594C22.8297 11.4965 22.9707 11.541 23.1043 11.5113C23.9578 11.8156 24.4625 12.6988 24.225 13.5523C23.9875 14.4059 23.1043 14.9031 22.2508 14.6656C22.1395 14.6359 22.0207 14.6062 21.9094 14.5691C21.3898 14.4281 20.8703 14.2797 20.3434 14.1758C19.3637 13.9902 18.2281 14.0793 17.3078 14.4727C16.4914 14.8289 15.816 15.6898 16.7437 16.2836C17.4785 16.7512 18.3617 16.9887 19.2078 17.152C19.3785 17.2633 19.5566 17.3152 19.7273 17.3598C20.8852 17.6938 22.3621 18.1094 23.468 18.8664C24.9078 19.8535 25.5832 21.4641 25.2715 23.1859C24.9598 24.8484 23.8094 25.9395 22.4141 26.4961C21.8352 26.7336 21.2043 26.882 20.5437 26.9562V28.0844C20.5437 28.9676 19.8238 29.6875 18.9406 29.6875C18.0574 29.6875 17.3375 28.9676 17.3375 28.0844V26.793C16.2613 26.5555 15.2074 26.2066 14.1609 25.8652C13.3223 25.5906 12.8621 24.6777 13.1441 23.8391C13.4187 23.0004 14.3316 22.5402 15.1703 22.8223C15.3559 22.8816 15.5414 22.9484 15.727 23.0078C16.5656 23.2898 17.4266 23.5867 18.2875 23.7203C19.5492 23.9059 20.4918 23.7945 21.2191 23.4605C22.1098 23.1637 22.5254 22.1098 21.657 21.516C20.9074 20.9371 19.9797 20.7516 19.0965 20.5141C18.859 20.4621 18.7551 20.4176 18.5918 20.373C17.4711 20.0539 16.0758 19.6605 15.0219 18.9852C13.5746 18.0574 12.8324 16.5137 13.1441 14.7992C13.441 13.1812 14.7027 12.1051 16.0387 11.5336C16.4469 11.2887 16.8848 11.2145 17.3375 11.1105V9.91562C17.3375 9.03242 18.0574 8.2457 18.9406 8.2457C19.8238 8.2457 20.5437 9.03242 20.5437 9.91562V10.9695ZM38 19C38 29.4945 29.4945 38 19 38C8.50547 38 0 29.4945 0 19C0 8.50547 8.50547 0 19 0C29.4945 0 38 8.50547 38 19ZM19 3.5625C10.4723 3.5625 3.5625 10.4723 3.5625 19C3.5625 27.5277 10.4723 34.4375 19 34.4375C27.5277 34.4375 34.4375 27.5277 34.4375 19C34.4375 10.4723 27.5277 3.5625 19 3.5625Z" fill="url(#paint0_linear_6859_11493)"/>
<defs>
<linearGradient id="paint0_linear_6859_11493" x1="0" y1="19" x2="38" y2="19" gradientUnits="userSpaceOnUse">
<stop stop-color="#F4B731"/>
<stop offset="0.505208" stop-color="#54AE94"/>
<stop offset="1" stop-color="#2775CA"/>
</linearGradient>
</defs>
</svg>
