<svg width="32" height="30" viewBox="0 0 32 30" fill="none" xmlns="http://www.w3.org/2000/svg">
<path d="M6.31524 2.85085L6.22902 2.80146L6.14319 2.85153L0.913391 5.9022L0.828112 5.95194V6.05067V12.1237V12.2227L0.913706 12.2724L5.09141 14.6975L0.913706 17.1226L0.828112 17.1723V17.2713V23.2952V23.3931L0.912312 23.4431L6.14081 26.5443L6.22717 26.5955L6.31421 26.5454L10.7701 23.9821L10.7714 23.9814L15.9716 21.0512L21.172 23.9819L21.1732 23.9826L25.638 26.5448L25.7246 26.5944L25.8106 26.5439L31.0871 23.4446L31.1719 23.3948V23.2964V17.2707V17.1715L31.086 17.1219L26.8892 14.6975L31.086 12.2732L31.1719 12.2235V12.1243V6.04951V5.9503L31.086 5.90067L25.8082 2.85188L25.7227 2.80248L25.637 2.85148L15.9649 8.37839L6.31524 2.85085ZM1.99667 7.30015L9.93241 11.8874L6.25523 14.0219L1.99667 11.5499V7.30015ZM11.0969 11.2108L2.57592 6.28524L6.23433 4.1512L14.7965 9.05578L11.0969 11.2108ZM19.6786 11.8799L15.9652 13.9787L12.2699 11.8799L15.9653 9.7273L19.6786 11.8799ZM30.0033 11.549L25.7211 14.0227L22.0246 11.8874L30.0033 7.29769V11.549ZM29.4177 6.28647L20.8558 11.2116L17.1358 9.05517L25.7196 4.15018L29.4177 6.28647ZM29.4195 17.5087L25.722 19.6446L17.1395 14.6573L20.8515 12.5592L29.4195 17.5087ZM26.3054 24.898V20.6571L30.0033 18.521V22.726L26.3054 24.898ZM16.5488 15.6656L25.1369 20.6561V24.9099L16.5488 19.9815V15.6656ZM15.3803 15.6668V19.9819L6.81596 24.9087V20.6557L15.3803 15.6668ZM6.23188 19.6436L2.5741 17.5099L11.1012 12.56L14.7928 14.6567L6.23188 19.6436ZM1.99667 22.7276V18.526L5.6474 20.6555V24.893L1.99667 22.7276Z" fill="#282E3F" stroke="#282E3F" stroke-width="0.343776"/>
</svg>
