<svg width="349" height="160" viewBox="0 0 349 160" fill="none" xmlns="http://www.w3.org/2000/svg">
<g filter="url(#filter0_d_6863_13591)">
<mask id="path-1-inside-1_6863_13591" fill="white">
<path fill-rule="evenodd" clip-rule="evenodd" d="M25.0901 10C21.8698 10 19.4892 12.9998 20.2208 16.1359L32.9212 70.5783C33.0956 71.3255 33.0956 72.1029 32.9212 72.8501L21.0206 123.864C20.289 127 22.6696 130 25.8899 130H296.963C299.304 130 301.331 128.376 301.842 126.091L313.759 72.8054C313.919 72.0868 313.919 71.3416 313.759 70.623L301.076 13.9088C300.565 11.6243 298.537 10 296.196 10H25.0901ZM328.994 129.897C328.987 129.785 328.828 129.772 328.803 129.881C328.788 129.942 328.835 130 328.897 130C328.953 130 328.997 129.953 328.994 129.897Z"/>
</mask>
<path fill-rule="evenodd" clip-rule="evenodd" d="M25.0901 10C21.8698 10 19.4892 12.9998 20.2208 16.1359L32.9212 70.5783C33.0956 71.3255 33.0956 72.1029 32.9212 72.8501L21.0206 123.864C20.289 127 22.6696 130 25.8899 130H296.963C299.304 130 301.331 128.376 301.842 126.091L313.759 72.8054C313.919 72.0868 313.919 71.3416 313.759 70.623L301.076 13.9088C300.565 11.6243 298.537 10 296.196 10H25.0901ZM328.994 129.897C328.987 129.785 328.828 129.772 328.803 129.881C328.788 129.942 328.835 130 328.897 130C328.953 130 328.997 129.953 328.994 129.897Z" fill="#1C3854"/>
<path d="M301.076 13.9088L302.051 13.6906L301.076 13.9088ZM313.759 72.8054L312.783 72.5872L313.759 72.8054ZM313.759 70.623L312.783 70.8412L313.759 70.623ZM301.842 126.091L302.818 126.309L301.842 126.091ZM32.9212 72.8501L31.9474 72.6229L32.9212 72.8501ZM33.8951 70.3511L21.1947 15.9087L19.247 16.3631L31.9474 70.8055L33.8951 70.3511ZM21.9945 124.091L33.8951 73.0773L31.9474 72.6229L20.0468 123.637L21.9945 124.091ZM25.8899 131H296.963V129H25.8899V131ZM302.818 126.309L314.734 73.0236L312.783 72.5872L300.866 125.873L302.818 126.309ZM314.734 70.4048L302.051 13.6906L300.1 14.127L312.783 70.8412L314.734 70.4048ZM296.196 9H25.0901V11H296.196V9ZM328.897 131C329.53 131 330.032 130.465 329.992 129.833L327.996 129.961C327.962 129.44 328.376 129 328.897 129V131ZM329.776 130.108C329.54 131.12 328.062 130.998 327.996 129.961L329.992 129.833C329.911 128.573 328.116 128.424 327.829 129.654L329.776 130.108ZM327.829 129.654C327.668 130.342 328.19 131 328.897 131V129C329.479 129 329.909 129.542 329.776 130.108L327.829 129.654ZM302.051 13.6906C301.438 10.9491 299.005 9 296.196 9V11C298.069 11 299.691 12.2994 300.1 14.127L302.051 13.6906ZM314.734 73.0236C314.927 72.1613 314.927 71.2671 314.734 70.4048L312.783 70.8412C312.911 71.4161 312.911 72.0123 312.783 72.5872L314.734 73.0236ZM296.963 131C299.772 131 302.205 129.051 302.818 126.309L300.866 125.873C300.458 127.701 298.836 129 296.963 129V131ZM20.0468 123.637C19.1688 127.4 22.0255 131 25.8899 131V129C23.3136 129 21.4092 126.6 21.9945 124.091L20.0468 123.637ZM21.1947 15.9087C20.6094 13.3998 22.5138 11 25.0901 11V9C21.2257 9 18.3691 12.5997 19.247 16.3631L21.1947 15.9087ZM31.9474 70.8055C32.0868 71.4033 32.0868 72.0251 31.9474 72.6229L33.8951 73.0773C34.1043 72.1806 34.1043 71.2478 33.8951 70.3511L31.9474 70.8055Z" fill="#05B6F9" mask="url(#path-1-inside-1_6863_13591)"/>
</g>
<defs>
<filter id="filter0_d_6863_13591" x="0.0878906" y="0" width="348.906" height="160" filterUnits="userSpaceOnUse" color-interpolation-filters="sRGB">
<feFlood flood-opacity="0" result="BackgroundImageFix"/>
<feColorMatrix in="SourceAlpha" type="matrix" values="0 0 0 0 0 0 0 0 0 0 0 0 0 0 0 0 0 0 127 0" result="hardAlpha"/>
<feOffset dy="10"/>
<feGaussianBlur stdDeviation="10"/>
<feComposite in2="hardAlpha" operator="out"/>
<feColorMatrix type="matrix" values="0 0 0 0 0 0 0 0 0 0 0 0 0 0 0 0 0 0 0.15 0"/>
<feBlend mode="normal" in2="BackgroundImageFix" result="effect1_dropShadow_6863_13591"/>
<feBlend mode="normal" in="SourceGraphic" in2="effect1_dropShadow_6863_13591" result="shape"/>
</filter>
</defs>
</svg>
