<svg width="20" height="20" viewBox="0 0 20 20" fill="none" xmlns="http://www.w3.org/2000/svg">
<path d="M10 20C15.5228 20 20 15.5228 20 10C20 4.47715 15.5228 0 10 0C4.47715 0 0 4.47715 0 10C0 15.5228 4.47715 20 10 20Z" fill="black"/>
<path d="M4.48231 4.43627C4.06067 4.879 3.71281 5.25145 3.7093 5.25848C3.70578 5.26902 4.08526 5.64147 4.55259 6.0842C5.01991 6.53044 5.4275 6.92046 5.45561 6.94506L5.50831 6.99425L5.41344 7.15237C4.5807 8.52974 4.40852 10.1882 4.93207 11.7132C5.03045 12.0013 5.19911 12.3702 5.34317 12.6127C5.41344 12.7321 5.44507 12.8094 5.43804 12.8235C5.43101 12.8375 5.00585 13.2873 4.49285 13.8249C3.97985 14.359 3.56172 14.8052 3.55469 14.8122C3.55118 14.8228 4.98828 16.2107 5.12532 16.3231L5.17802 16.3688L5.98969 15.522C6.43593 15.0547 6.85406 14.6155 6.91731 14.5487L7.03677 14.4292L7.14921 14.4995C7.72195 14.8649 8.39306 15.1179 9.13445 15.2515C9.50691 15.3182 10.2167 15.3358 10.6137 15.2866C11.3797 15.1987 12.1387 14.9422 12.7606 14.5663L12.9222 14.4679L13.0944 14.6366C13.4704 15.002 14.8758 16.3372 14.8899 16.3442C14.904 16.3512 16.4465 14.7385 16.443 14.7174C16.4394 14.7068 15.3818 13.6914 14.7353 13.0835L14.521 12.8797L14.6193 12.7181C15.4451 11.3442 15.6172 9.67872 15.0832 8.14323C15.0059 7.91835 14.7704 7.41238 14.6334 7.18048L14.5666 7.06452L15.4697 6.11934C15.9651 5.60282 16.3692 5.17064 16.3657 5.1601C16.3516 5.12496 14.7704 3.63163 14.7494 3.63163C14.7353 3.63163 14.3382 4.03571 13.8639 4.53466C13.3895 5.03009 12.996 5.43768 12.9855 5.44119C12.9784 5.44471 12.9328 5.42362 12.8906 5.392C12.7711 5.31119 12.469 5.14604 12.3003 5.06874C11.7873 4.83332 11.3094 4.68926 10.7543 4.60844C10.4661 4.56628 9.60178 4.55925 9.33474 4.5979C8.69524 4.68926 8.1717 4.84738 7.63762 5.11442C7.48301 5.18821 7.30382 5.28659 7.23354 5.32875L7.10705 5.40606L6.96299 5.26551C6.88568 5.18821 6.53431 4.85792 6.18646 4.52412C5.8386 4.19383 5.48372 3.85651 5.39939 3.77218L5.24478 3.62109L4.48231 4.43627ZM10.3818 6.72721C10.9405 6.79397 11.4394 6.98371 11.8997 7.30697C12.1352 7.47211 12.4865 7.82348 12.6517 8.0589C13.5898 9.38708 13.4106 11.1931 12.23 12.2999C11.2216 13.2416 9.76341 13.4524 8.53712 12.827C7.65167 12.3737 7.02623 11.5445 6.82595 10.5501C6.7627 10.2339 6.7627 9.64358 6.82595 9.33086C6.88568 9.02166 6.9665 8.80029 7.11759 8.49109C7.72195 7.27535 9.03256 6.56558 10.3818 6.72721Z" fill="white"/>
</svg>
